<svg xmlns="http://www.w3.org/2000/svg" xmlns:xlink="http://www.w3.org/1999/xlink" width="800" zoomAndPan="magnify" viewBox="0 0 600 449.999984" height="600" preserveAspectRatio="xMidYMid meet" version="1.0"><defs><clipPath id="54632b9e7a"><path d="M 206 192 L 402.148438 192 L 402.148438 315 L 206 315 Z M 206 192 " clip-rule="nonzero"/></clipPath><clipPath id="45a8a34930"><path d="M 198.148438 239 L 387 239 L 387 315 L 198.148438 315 Z M 198.148438 239 " clip-rule="nonzero"/></clipPath></defs><path fill="#c0e5ff" d="M 396.476562 301.039062 L 330.09375 301.039062 L 353.433594 192.753906 L 363.304688 192.753906 L 396.476562 239.644531 Z M 396.476562 301.039062 " fill-opacity="1" fill-rule="nonzero"/><path fill="#89ccf8" d="M 307.941406 222.371094 L 319.039062 258.628906 C 319.039062 258.628906 317 262.175781 309.492188 264.457031 C 301.984375 266.738281 298.3125 264.945312 298.3125 264.945312 L 287.214844 228.6875 L 283.214844 202.777344 C 281.707031 203.019531 280.195312 202.164062 279.707031 200.660156 C 279.21875 199.027344 280.117188 197.277344 281.789062 196.789062 L 282.277344 196.625 C 282.277344 196.625 288.519531 194.710938 288.195312 194.832031 C 287.828125 194.953125 294.109375 193.039062 294.109375 193.039062 L 294.597656 192.878906 C 296.230469 192.386719 297.984375 193.285156 298.476562 194.953125 C 298.925781 196.460938 298.191406 198.050781 296.761719 198.664062 Z M 386.601562 239.6875 L 353.433594 192.796875 L 320.261719 239.6875 L 320.261719 301.082031 L 386.644531 301.082031 L 386.644531 239.6875 Z M 386.601562 239.6875 " fill-opacity="1" fill-rule="nonzero"/><path fill="#c0e5ff" d="M 280.402344 149.164062 L 278.769531 154.582031 L 290.847656 194.058594 L 285.5 195.6875 L 273.425781 156.210938 L 269.058594 152.628906 L 267.425781 136.65625 L 272.8125 135.027344 Z M 306.921875 172.425781 C 306.921875 172.46875 306.960938 172.46875 306.960938 172.507812 C 307.246094 172.957031 307.574219 173.445312 307.898438 173.851562 C 310.714844 178.25 310.917969 182.039062 310.183594 187.214844 C 309.449219 192.265625 304.023438 230.519531 302.757812 239.6875 L 319.894531 239.6875 C 321.609375 227.628906 326.339844 194.304688 326.996094 189.617188 C 327.6875 184.605469 328.871094 181.105469 332.542969 177.761719 C 337.601562 174.179688 340.664062 168.066406 340.007812 161.46875 C 339.316406 154.417969 334.625 148.714844 328.382812 146.433594 L 329.566406 158.820312 C 329.890625 162.363281 327.320312 165.542969 323.730469 165.867188 L 319.894531 166.234375 C 316.347656 166.558594 313.164062 163.992188 312.835938 160.410156 L 311.695312 148.714844 C 306.757812 152.300781 303.738281 158.289062 304.351562 164.808594 C 304.59375 167.539062 305.492188 170.144531 306.921875 172.425781 Z M 306.921875 172.425781 " fill-opacity="1" fill-rule="nonzero"/><path fill="#2d83b6" d="M 355.226562 224.285156 L 252.25 224.285156 L 252.25 208.277344 L 355.226562 208.277344 C 355.226562 208.277344 356.777344 209.011719 356.777344 216.300781 C 356.777344 223.59375 355.226562 224.285156 355.226562 224.285156 Z M 355.226562 224.285156 " fill-opacity="1" fill-rule="nonzero"/><path fill="#c0e5ff" d="M 282.808594 301.039062 L 216.425781 301.039062 L 239.765625 192.796875 L 249.636719 192.796875 L 282.808594 239.6875 Z M 282.808594 301.039062 " fill-opacity="1" fill-rule="nonzero"/><g clip-path="url(#54632b9e7a)"><path fill="#89ccf8" d="M 272.933594 301.039062 L 206.554688 301.039062 L 206.554688 239.6875 L 239.765625 192.796875 L 272.933594 239.6875 Z M 288.886719 314.972656 L 402.148438 314.972656 L 402.148438 301.082031 L 288.886719 301.082031 Z M 288.886719 314.972656 " fill-opacity="1" fill-rule="nonzero"/></g><g clip-path="url(#45a8a34930)"><path fill="#2d83b6" d="M 386.601562 301.039062 L 282.808594 301.039062 L 282.808594 239.6875 L 386.601562 239.6875 Z M 235.519531 245.839844 L 225.484375 245.839844 C 224.914062 245.839844 224.421875 246.328125 224.421875 246.898438 L 224.421875 262.539062 C 224.421875 263.113281 224.914062 263.601562 225.484375 263.601562 L 235.519531 263.601562 C 236.09375 263.601562 236.582031 263.113281 236.582031 262.539062 L 236.582031 246.9375 C 236.582031 246.328125 236.09375 245.839844 235.519531 245.839844 Z M 251.71875 245.839844 L 241.683594 245.839844 C 241.109375 245.839844 240.621094 246.328125 240.621094 246.898438 L 240.621094 262.539062 C 240.621094 263.113281 241.109375 263.601562 241.683594 263.601562 L 251.71875 263.601562 C 252.289062 263.601562 252.78125 263.113281 252.78125 262.539062 L 252.78125 246.9375 C 252.78125 246.328125 252.289062 245.839844 251.71875 245.839844 Z M 235.519531 269.832031 L 225.484375 269.832031 C 224.914062 269.832031 224.421875 270.320312 224.421875 270.890625 L 224.421875 286.496094 C 224.421875 287.066406 224.914062 287.554688 225.484375 287.554688 L 235.519531 287.554688 C 236.09375 287.554688 236.582031 287.066406 236.582031 286.496094 L 236.582031 270.890625 C 236.582031 270.320312 236.09375 269.832031 235.519531 269.832031 Z M 251.71875 269.832031 L 241.683594 269.832031 C 241.109375 269.832031 240.621094 270.320312 240.621094 270.890625 L 240.621094 286.496094 C 240.621094 287.066406 241.109375 287.554688 241.683594 287.554688 L 251.71875 287.554688 C 252.289062 287.554688 252.78125 287.066406 252.78125 286.496094 L 252.78125 270.890625 C 252.78125 270.320312 252.289062 269.832031 251.71875 269.832031 Z M 198.148438 314.972656 L 288.886719 314.972656 L 288.886719 301.082031 L 198.148438 301.082031 Z M 198.148438 314.972656 " fill-opacity="1" fill-rule="nonzero"/></g></svg>